<svg width="56" height="58" viewBox="0 0 56 58" fill="none" xmlns="http://www.w3.org/2000/svg">
<path d="M28 57.0379C43.464 57.0379 56 44.485 56 29C56 13.5151 43.464 0.962097 28 0.962097C12.536 0.962097 0 13.5151 0 29C0 44.485 12.536 57.0379 28 57.0379Z" fill="#C8C372"/>
<path d="M28.0003 55.8696C42.82 55.8696 54.8337 43.8397 54.8337 29C54.8337 14.1602 42.82 2.13031 28.0003 2.13031C13.1807 2.13031 1.16699 14.1602 1.16699 29C1.16699 43.8397 13.1807 55.8696 28.0003 55.8696Z" fill="#1E4D2B"/>
<path d="M30.7418 43.7394C29.8279 43.8367 28.8168 44.0509 28.0002 44.0314C27.1834 44.0509 26.1723 43.8367 25.2585 43.7394C25.1029 43.7199 25.0057 43.8367 25.0057 43.8367C24.4612 44.9855 27.553 45.628 28.0002 45.6086C28.4474 45.628 31.5585 44.9855 31.014 43.8367C30.9946 43.8172 30.8974 43.7199 30.7418 43.7394Z" fill="white"/>
<path d="M45.753 27.4423C45.6169 26.3909 44.703 26.0599 43.8863 25.8068C41.5336 25.0668 40.5225 25.982 39.8419 26.0599C40.5808 25.2032 40.4058 23.7818 39.4336 23.626C37.6058 23.334 38.1114 25.32 38.5391 26.2351C38.8308 26.8193 39.2003 27.7733 40.0947 27.7149C41.203 27.6175 41.028 26.7219 42.6419 26.5856C42.6419 26.5856 44.6447 26.7219 44.6058 27.3644C44.528 28.2991 43.4974 28.6495 42.8364 28.8832C41.8447 29.2141 40.6974 28.7274 39.8808 29.6426C39.628 29.9541 39.4336 30.324 39.5114 30.6744C39.6085 31.0249 39.6475 30.8691 40.7558 30.9665C40.1336 31.7259 39.7836 32.8942 39.7641 33.9066C39.7253 36.652 39.0447 38.7743 39.3169 39.7284C40.6391 38.1317 40.6197 35.7174 40.8336 33.7898C40.9502 32.7968 41.3197 31.687 41.8058 30.947C42.3697 30.0904 43.4391 30.0514 44.1391 29.5257C44.7808 29.0584 45.8308 28.2212 45.753 27.4423Z" fill="white"/>
<path d="M16.5665 23.626C15.5942 23.7818 15.4193 25.2032 16.1387 26.0599C15.4776 25.982 14.4665 25.0669 12.1137 25.8068C11.2971 26.0599 10.3637 26.3909 10.247 27.4423C10.1498 28.2212 11.1998 29.0584 11.8803 29.5452C12.5803 30.0709 13.6498 30.1098 14.2137 30.9665C14.6803 31.687 15.0692 32.7968 15.1859 33.8092C15.3998 35.7369 15.3609 38.1512 16.7026 39.7478C16.9554 38.7938 16.2748 36.6714 16.2554 33.9261C16.2359 32.9136 15.847 31.7454 15.2637 30.986C16.372 30.8886 16.3915 31.0444 16.4692 30.6939C16.5859 30.3435 16.3526 29.9736 16.0998 29.662C15.3026 28.7274 14.1554 29.2336 13.1443 28.9026C12.4831 28.669 11.4331 28.3185 11.3942 27.3839C11.3554 26.7414 13.3581 26.605 13.3581 26.605C14.9526 26.7219 14.7776 27.637 15.8859 27.7344C16.7998 27.8122 17.1692 26.8388 17.4609 26.2546C17.9082 25.3006 18.4137 23.334 16.5665 23.626Z" fill="white"/>
<path d="M28.0189 33.673H27.9799C27.105 33.6925 26.6383 34.4324 25.8411 35.2696C24.4411 36.7883 21.5828 40.5851 23.6633 42.3959C24.5966 43.1942 25.8022 43.7394 27.4744 43.2332C27.8828 42.9411 27.6494 42.0844 27.4355 41.7145C26.6577 40.702 25.4327 41.0913 25.1022 40.5851C24.7717 40.0984 24.9855 39.709 25.1994 39.4558C25.4911 39.0859 25.9577 39.1832 26.366 39.3001C27.066 39.4558 27.5522 39.7674 27.9994 40.1957V40.2347L28.0189 40.2152L28.0383 40.2347V40.1957C28.466 39.7674 28.9717 39.4558 29.6717 39.3001C30.0605 39.1832 30.5466 39.1054 30.8189 39.4558C31.0327 39.709 31.2272 40.0984 30.9161 40.5851C30.566 41.0913 29.38 40.702 28.6022 41.7145C28.3883 42.1039 28.1355 42.9606 28.5438 43.2332C30.2355 43.7394 31.4216 43.1942 32.3549 42.3959C34.4549 40.6046 31.5966 36.8078 30.1772 35.2696C29.3605 34.4324 28.8744 33.6925 28.0189 33.673Z" fill="white"/>
<path d="M23.7775 35.328C24.5163 34.1793 25.2941 31.687 24.8469 30.6355C24.1274 30.3435 23.2524 29.7789 22.7274 28.9805C22.2025 28.2212 21.8913 27.3644 20.9775 27.1113C20.3552 26.8972 19.6746 27.014 19.1691 27.2866C18.3524 27.7538 18.158 28.8832 18.0219 29.7789C17.9635 31.6091 18.3136 34.3155 19.1108 36.029C19.5775 37.2946 20.6663 39.4168 22.0274 41.3834C21.6385 38.2486 23.3691 36.1652 23.7775 35.328ZM21.3857 31.2781C21.0163 30.6355 20.1025 30.7718 19.6552 30.5187C18.9552 30.0709 18.9941 29.0779 19.6358 28.4938C20.4913 27.7149 22.708 30.2267 22.2219 32.1737C22.008 32.2321 21.8913 32.1153 21.3857 31.2781Z" fill="white"/>
<path d="M36.8437 27.2866C36.3381 27.014 35.6381 26.8777 35.0353 27.1114C34.102 27.3645 33.8103 28.2212 33.2659 28.9805C32.7408 29.7789 31.8659 30.3435 31.1464 30.6355C30.6992 31.687 31.477 34.1793 32.2158 35.328C32.6242 36.1847 34.3548 38.2486 33.9853 41.4029C35.3464 39.4169 36.4353 37.3141 36.8825 36.0484C37.6797 34.335 38.0492 31.6286 37.9714 29.7983C37.8741 28.8832 37.6603 27.7539 36.8437 27.2866ZM36.3381 30.4992C35.9297 30.7523 34.9964 30.6355 34.6075 31.2587C34.102 32.0958 33.9853 32.2127 33.7714 32.1542C33.2853 30.1877 35.502 27.676 36.3381 28.4743C37.0186 29.0779 37.0381 30.0514 36.3381 30.4992Z" fill="white"/>
<path d="M28 3.59064C14.0195 3.59064 2.625 15.0005 2.625 29C2.625 42.98 14.0195 54.4093 28 54.4093C41.9611 54.4093 53.3555 42.98 53.3555 29C53.375 15.0005 41.9805 3.59064 28 3.59064ZM46.9583 44.0704C46.1222 45.2191 45.1499 46.1538 43.925 46.6016C43.1472 46.9131 42.3499 47.0299 41.5528 46.6795C40.9306 46.4069 40.5417 45.7838 40.425 45.1023C40.2889 44.0898 40.8528 42.8826 41.3388 42.0844C42.0195 40.9356 43.575 38.9496 45.3639 37.6256C47.9111 35.7369 49.6805 35.2112 49.0388 34.7634C48.5722 34.4518 46.1611 35.7759 45.6944 36.029C42.9722 37.4309 39.2388 41.4808 38.8111 44.4793C38.5 46.5432 40.5417 48.1008 42.2916 48.0229C36.4583 52.7154 30.1388 52.8517 28 52.9101H27.9805C25.8417 52.8517 19.4833 52.6959 13.6889 48.0229C15.4388 48.1008 17.4805 46.5432 17.1889 44.4793C16.7417 41.4808 12.9889 37.4309 10.3055 36.029C9.81947 35.7759 7.40833 34.4518 6.94166 34.7634C6.28055 35.1917 8.04999 35.7174 10.5972 37.6256C12.3861 38.9496 13.9417 40.955 14.6028 42.0844C15.1084 42.8826 15.6916 44.0898 15.5361 45.1023C15.4195 45.8032 15.0306 46.4069 14.4084 46.6795C13.6111 47.0494 12.8139 46.9131 12.0361 46.6016C10.8306 46.1732 9.85832 45.2191 9.00281 44.0704C7.40833 41.9091 5.85277 39.4169 5.05555 36.7883C5.73611 38.2875 10.0139 44.5961 11.9195 44.6935C13.8833 44.8103 10.0139 39.5726 7.35 37.3919C6.70833 36.8662 5.96944 36.2431 5.83333 35.2696C5.71667 34.5687 6.08611 34.0818 6.78611 34.0624C7.85555 34.0234 10.6166 35.4643 10.6556 35.4058C5.85277 26.7803 13.2028 22.4188 10.1694 20.5302C9.09999 19.8488 6.84444 20.5302 5.61944 20.7054C16.975 14.0075 18.9388 20.6665 22.3611 23.7428C22.8861 24.2297 25.2972 23.7428 25.7444 23.1782C26.3472 22.4578 27.5528 19.8293 26.1916 18.1158C24.3055 15.7209 16.6639 8.8088 9.44995 14.027C11.2 11.6126 13.8444 9.41236 17.0139 7.79632C20.5722 5.96607 24.4805 5.012 28 5.10935H28.0195H28.0388C34.9611 4.91465 42.7 8.69198 46.5499 14.027C39.3166 8.82828 31.7139 15.7209 29.7889 18.1353C28.4277 19.8682 29.6333 22.4773 30.2361 23.1977C30.7027 23.7623 33.1139 24.2492 33.6388 23.7623C37.0417 20.6859 39.025 14.027 50.3222 20.7054C49.0972 20.5302 46.8222 19.8488 45.7722 20.5302C42.7195 22.4188 50.0499 26.7803 45.2667 35.4058C45.3055 35.4643 48.0667 34.0234 49.1361 34.0624C49.8361 34.1013 50.2055 34.5687 50.0889 35.2696C49.9333 36.2431 49.1944 36.8662 48.5722 37.3919C45.9084 39.5726 42.0583 44.8103 43.9833 44.6935C45.9084 44.5961 50.2055 38.307 50.8667 36.7883C50.1084 39.4169 48.5333 41.9091 46.9583 44.0704Z" fill="white"/>
</svg>
