<svg width="47" height="46" viewBox="0 0 47 46" fill="none" xmlns="http://www.w3.org/2000/svg">
<g clip-path="url(#clip0)">
<path d="M46.0034 0V15.5263H40.2536C40.2536 12.6667 37.4219 10.3513 33.9289 10.3513C31.3753 10.3513 29.1771 11.5888 28.1777 13.3706V32.7744C28.1777 36.8995 31.386 40.2395 35.3474 40.2488H35.366V46H10.6475V40.2488H10.6634C14.6182 40.2395 17.8331 36.8969 17.8331 32.7744V13.3706C16.8337 11.5888 14.6395 10.3513 12.0832 10.3513C8.59023 10.3513 5.75856 12.6667 5.75856 15.5263H0.0020752V0H46.0034Z" fill="#FF8200"/>
<path d="M38.3653 42.5816C38.6728 42.5824 38.9732 42.6743 39.2285 42.8457C39.4837 43.0171 39.6825 43.2603 39.7996 43.5447C39.9167 43.829 39.947 44.1416 39.8865 44.4431C39.826 44.7446 39.6776 45.0214 39.4599 45.2385C39.2422 45.4557 38.965 45.6034 38.6633 45.6631C38.3617 45.7228 38.0491 45.6918 37.7651 45.5739C37.4811 45.4561 37.2384 45.2567 37.0677 45.001C36.8969 44.7453 36.8058 44.4447 36.8058 44.1372C36.8054 43.9325 36.8456 43.7297 36.9239 43.5405C37.0022 43.3514 37.1171 43.1796 37.262 43.035C37.407 42.8905 37.5791 42.776 37.7684 42.6982C37.9578 42.6203 38.1606 42.5807 38.3653 42.5816V42.5816ZM38.3653 45.9935C38.7341 45.9935 39.0945 45.884 39.401 45.679C39.7075 45.474 39.9463 45.1827 40.0871 44.8419C40.2279 44.5011 40.2644 44.1262 40.192 43.7646C40.1195 43.4031 39.9415 43.0711 39.6803 42.8109C39.4191 42.5506 39.0865 42.3737 38.7247 42.3026C38.3629 42.2314 37.9881 42.2693 37.6478 42.4113C37.3075 42.5533 37.017 42.7931 36.8131 43.1004C36.6092 43.4076 36.5011 43.7684 36.5024 44.1372C36.5003 44.3824 36.547 44.6255 36.6399 44.8524C36.7328 45.0793 36.8699 45.2854 37.0434 45.4588C37.2168 45.6321 37.423 45.7691 37.65 45.8618C37.877 45.9545 38.1202 46.0011 38.3653 45.9988V45.9935ZM38.6874 44.2303C38.7626 44.2339 38.8378 44.2215 38.9079 44.1939C38.978 44.1663 39.0414 44.1241 39.094 44.0701C39.1466 44.0161 39.1871 43.9516 39.2129 43.8808C39.2387 43.8101 39.2491 43.7346 39.2436 43.6595C39.2436 43.219 38.9043 43.1059 38.5263 43.1059H37.6468V45.1951H37.9488V44.2303H38.3361L38.8683 45.1951H39.213L38.6874 44.2303ZM38.4691 43.408C38.7193 43.408 38.9415 43.4293 38.9415 43.6927C38.9415 43.9762 38.5543 43.9283 38.2762 43.9283H37.9542V43.408H38.4691Z" fill="#FF8200"/>
</g>
<defs>
<clipPath id="clip0">
<rect width="46.23" height="46" fill="white"/>
</clipPath>
</defs>
</svg>
